<mxfile host="app.diagrams.net" modified="2023-02-27T06:43:45.325Z" agent="5.0 (X11)" etag="Vf-c-QV-CDhnd5W-w9ZD" version="20.8.22" type="github">
  <diagram id="C5RBs43oDa-KdzZeNtuy" name="Page-1">
    <mxGraphModel dx="1851" dy="542" grid="1" gridSize="10" guides="1" tooltips="1" connect="1" arrows="1" fold="1" page="1" pageScale="1" pageWidth="827" pageHeight="1169" math="0" shadow="0">
      <root>
        <mxCell id="WIyWlLk6GJQsqaUBKTNV-0" />
        <mxCell id="WIyWlLk6GJQsqaUBKTNV-1" parent="WIyWlLk6GJQsqaUBKTNV-0" />
        <mxCell id="zkfFHV4jXpPFQw0GAbJ--12" value="" style="endArrow=block;endSize=10;endFill=0;shadow=0;strokeWidth=1;rounded=0;edgeStyle=elbowEdgeStyle;elbow=vertical;" parent="WIyWlLk6GJQsqaUBKTNV-1" edge="1">
          <mxGeometry width="160" relative="1" as="geometry">
            <mxPoint x="304.9" y="402" as="sourcePoint" />
            <mxPoint x="304.89999999999986" y="259.9999999999999" as="targetPoint" />
          </mxGeometry>
        </mxCell>
        <mxCell id="zOB5Pgy7R0kJXCwInkpY-6" value="Handler" style="html=1;" vertex="1" parent="WIyWlLk6GJQsqaUBKTNV-1">
          <mxGeometry x="250" y="210" width="110" height="50" as="geometry" />
        </mxCell>
        <mxCell id="zOB5Pgy7R0kJXCwInkpY-8" value="NetworkFactory" style="swimlane;fontStyle=1;align=center;verticalAlign=top;childLayout=stackLayout;horizontal=1;startSize=26;horizontalStack=0;resizeParent=1;resizeParentMax=0;resizeLast=0;collapsible=1;marginBottom=0;" vertex="1" parent="WIyWlLk6GJQsqaUBKTNV-1">
          <mxGeometry x="207.5" y="400" width="195" height="216" as="geometry">
            <mxRectangle x="207.5" y="400" width="130" height="30" as="alternateBounds" />
          </mxGeometry>
        </mxCell>
        <mxCell id="zOB5Pgy7R0kJXCwInkpY-9" value="- mScore: int" style="text;strokeColor=none;fillColor=none;align=left;verticalAlign=top;spacingLeft=4;spacingRight=4;overflow=hidden;rotatable=0;points=[[0,0.5],[1,0.5]];portConstraint=eastwest;" vertex="1" parent="zOB5Pgy7R0kJXCwInkpY-8">
          <mxGeometry y="26" width="195" height="26" as="geometry" />
        </mxCell>
        <mxCell id="zOB5Pgy7R0kJXCwInkpY-16" value="- mMessenger: Messenger" style="text;strokeColor=none;fillColor=none;align=left;verticalAlign=top;spacingLeft=4;spacingRight=4;overflow=hidden;rotatable=0;points=[[0,0.5],[1,0.5]];portConstraint=eastwest;" vertex="1" parent="zOB5Pgy7R0kJXCwInkpY-8">
          <mxGeometry y="52" width="195" height="26" as="geometry" />
        </mxCell>
        <mxCell id="zOB5Pgy7R0kJXCwInkpY-29" value="......" style="text;strokeColor=none;fillColor=none;align=left;verticalAlign=top;spacingLeft=4;spacingRight=4;overflow=hidden;rotatable=0;points=[[0,0.5],[1,0.5]];portConstraint=eastwest;" vertex="1" parent="zOB5Pgy7R0kJXCwInkpY-8">
          <mxGeometry y="78" width="195" height="26" as="geometry" />
        </mxCell>
        <mxCell id="zOB5Pgy7R0kJXCwInkpY-10" value="" style="line;strokeWidth=1;fillColor=none;align=left;verticalAlign=middle;spacingTop=-1;spacingLeft=3;spacingRight=3;rotatable=0;labelPosition=right;points=[];portConstraint=eastwest;strokeColor=inherit;" vertex="1" parent="zOB5Pgy7R0kJXCwInkpY-8">
          <mxGeometry y="104" width="195" height="8" as="geometry" />
        </mxCell>
        <mxCell id="zOB5Pgy7R0kJXCwInkpY-11" value="+ register()" style="text;strokeColor=none;fillColor=none;align=left;verticalAlign=top;spacingLeft=4;spacingRight=4;overflow=hidden;rotatable=0;points=[[0,0.5],[1,0.5]];portConstraint=eastwest;" vertex="1" parent="zOB5Pgy7R0kJXCwInkpY-8">
          <mxGeometry y="112" width="195" height="26" as="geometry" />
        </mxCell>
        <mxCell id="zOB5Pgy7R0kJXCwInkpY-17" value="+ handleMessage(Message)" style="text;strokeColor=none;fillColor=none;align=left;verticalAlign=top;spacingLeft=4;spacingRight=4;overflow=hidden;rotatable=0;points=[[0,0.5],[1,0.5]];portConstraint=eastwest;" vertex="1" parent="zOB5Pgy7R0kJXCwInkpY-8">
          <mxGeometry y="138" width="195" height="26" as="geometry" />
        </mxCell>
        <mxCell id="zOB5Pgy7R0kJXCwInkpY-19" value="+ setSecoreFilter(int)" style="text;strokeColor=none;fillColor=none;align=left;verticalAlign=top;spacingLeft=4;spacingRight=4;overflow=hidden;rotatable=0;points=[[0,0.5],[1,0.5]];portConstraint=eastwest;" vertex="1" parent="zOB5Pgy7R0kJXCwInkpY-8">
          <mxGeometry y="164" width="195" height="26" as="geometry" />
        </mxCell>
        <mxCell id="zOB5Pgy7R0kJXCwInkpY-30" value="......" style="text;strokeColor=none;fillColor=none;align=left;verticalAlign=top;spacingLeft=4;spacingRight=4;overflow=hidden;rotatable=0;points=[[0,0.5],[1,0.5]];portConstraint=eastwest;" vertex="1" parent="zOB5Pgy7R0kJXCwInkpY-8">
          <mxGeometry y="190" width="195" height="26" as="geometry" />
        </mxCell>
        <mxCell id="zOB5Pgy7R0kJXCwInkpY-20" value="更新当前网络分数" style="html=1;dropTarget=0;fillColor=#fff2cc;strokeColor=#d6b656;" vertex="1" parent="WIyWlLk6GJQsqaUBKTNV-1">
          <mxGeometry x="-50" y="564" width="240" height="30" as="geometry" />
        </mxCell>
        <mxCell id="zOB5Pgy7R0kJXCwInkpY-21" value="" style="shape=module;jettyWidth=8;jettyHeight=4;" vertex="1" parent="zOB5Pgy7R0kJXCwInkpY-20">
          <mxGeometry x="1" width="20" height="20" relative="1" as="geometry">
            <mxPoint x="-27" y="7" as="offset" />
          </mxGeometry>
        </mxCell>
        <mxCell id="zOB5Pgy7R0kJXCwInkpY-22" value="" style="endArrow=none;dashed=1;html=1;dashPattern=1 3;strokeWidth=2;rounded=0;entryX=-0.005;entryY=0.654;entryDx=0;entryDy=0;entryPerimeter=0;exitX=1;exitY=0.5;exitDx=0;exitDy=0;" edge="1" parent="WIyWlLk6GJQsqaUBKTNV-1" source="zOB5Pgy7R0kJXCwInkpY-20" target="zOB5Pgy7R0kJXCwInkpY-19">
          <mxGeometry width="50" height="50" relative="1" as="geometry">
            <mxPoint x="140" y="570" as="sourcePoint" />
            <mxPoint x="190" y="520" as="targetPoint" />
          </mxGeometry>
        </mxCell>
        <mxCell id="zOB5Pgy7R0kJXCwInkpY-23" value="处理网络请求，用于打开或者释放当前连接" style="html=1;dropTarget=0;fillColor=#ffff88;strokeColor=#36393d;" vertex="1" parent="WIyWlLk6GJQsqaUBKTNV-1">
          <mxGeometry x="-290" y="534" width="340" height="30" as="geometry" />
        </mxCell>
        <mxCell id="zOB5Pgy7R0kJXCwInkpY-24" value="" style="shape=module;jettyWidth=8;jettyHeight=4;" vertex="1" parent="zOB5Pgy7R0kJXCwInkpY-23">
          <mxGeometry x="1" width="20" height="20" relative="1" as="geometry">
            <mxPoint x="-27" y="7" as="offset" />
          </mxGeometry>
        </mxCell>
        <mxCell id="zOB5Pgy7R0kJXCwInkpY-25" value="" style="endArrow=none;dashed=1;html=1;dashPattern=1 3;strokeWidth=2;rounded=0;entryX=0;entryY=0.5;entryDx=0;entryDy=0;exitX=1.007;exitY=0.567;exitDx=0;exitDy=0;exitPerimeter=0;" edge="1" parent="WIyWlLk6GJQsqaUBKTNV-1" source="zOB5Pgy7R0kJXCwInkpY-23" target="zOB5Pgy7R0kJXCwInkpY-17">
          <mxGeometry width="50" height="50" relative="1" as="geometry">
            <mxPoint x="60" y="595" as="sourcePoint" />
            <mxPoint x="217" y="565" as="targetPoint" />
          </mxGeometry>
        </mxCell>
        <mxCell id="zOB5Pgy7R0kJXCwInkpY-26" value="将当前网络注册到ConnectivityService" style="html=1;dropTarget=0;fillColor=#ffcc99;strokeColor=#36393d;" vertex="1" parent="WIyWlLk6GJQsqaUBKTNV-1">
          <mxGeometry x="-210" y="508" width="340" height="30" as="geometry" />
        </mxCell>
        <mxCell id="zOB5Pgy7R0kJXCwInkpY-27" value="" style="shape=module;jettyWidth=8;jettyHeight=4;" vertex="1" parent="zOB5Pgy7R0kJXCwInkpY-26">
          <mxGeometry x="1" width="20" height="20" relative="1" as="geometry">
            <mxPoint x="-27" y="7" as="offset" />
          </mxGeometry>
        </mxCell>
        <mxCell id="zOB5Pgy7R0kJXCwInkpY-28" value="" style="endArrow=none;dashed=1;html=1;dashPattern=1 3;strokeWidth=2;rounded=0;entryX=0;entryY=0.5;entryDx=0;entryDy=0;exitX=1.003;exitY=0.579;exitDx=0;exitDy=0;exitPerimeter=0;" edge="1" parent="WIyWlLk6GJQsqaUBKTNV-1" source="zOB5Pgy7R0kJXCwInkpY-26" target="zOB5Pgy7R0kJXCwInkpY-11">
          <mxGeometry width="50" height="50" relative="1" as="geometry">
            <mxPoint x="62" y="535" as="sourcePoint" />
            <mxPoint x="218" y="535" as="targetPoint" />
          </mxGeometry>
        </mxCell>
        <mxCell id="zOB5Pgy7R0kJXCwInkpY-31" value="" style="endArrow=block;endSize=10;endFill=0;shadow=0;strokeWidth=1;rounded=0;edgeStyle=elbowEdgeStyle;elbow=vertical;" edge="1" parent="WIyWlLk6GJQsqaUBKTNV-1">
          <mxGeometry width="160" relative="1" as="geometry">
            <mxPoint x="304.64" y="758" as="sourcePoint" />
            <mxPoint x="304.6399999999999" y="615.9999999999999" as="targetPoint" />
          </mxGeometry>
        </mxCell>
        <mxCell id="zOB5Pgy7R0kJXCwInkpY-32" value="EthernetNetworkFactory" style="swimlane;fontStyle=1;align=center;verticalAlign=top;childLayout=stackLayout;horizontal=1;startSize=26;horizontalStack=0;resizeParent=1;resizeParentMax=0;resizeLast=0;collapsible=1;marginBottom=0;" vertex="1" parent="WIyWlLk6GJQsqaUBKTNV-1">
          <mxGeometry x="207.5" y="750" width="195" height="216" as="geometry">
            <mxRectangle x="207.5" y="400" width="130" height="30" as="alternateBounds" />
          </mxGeometry>
        </mxCell>
        <mxCell id="zOB5Pgy7R0kJXCwInkpY-33" value="- mScore: int" style="text;strokeColor=none;fillColor=none;align=left;verticalAlign=top;spacingLeft=4;spacingRight=4;overflow=hidden;rotatable=0;points=[[0,0.5],[1,0.5]];portConstraint=eastwest;" vertex="1" parent="zOB5Pgy7R0kJXCwInkpY-32">
          <mxGeometry y="26" width="195" height="26" as="geometry" />
        </mxCell>
        <mxCell id="zOB5Pgy7R0kJXCwInkpY-34" value="- mMessenger: Messenger" style="text;strokeColor=none;fillColor=none;align=left;verticalAlign=top;spacingLeft=4;spacingRight=4;overflow=hidden;rotatable=0;points=[[0,0.5],[1,0.5]];portConstraint=eastwest;" vertex="1" parent="zOB5Pgy7R0kJXCwInkpY-32">
          <mxGeometry y="52" width="195" height="26" as="geometry" />
        </mxCell>
        <mxCell id="zOB5Pgy7R0kJXCwInkpY-35" value="......" style="text;strokeColor=none;fillColor=none;align=left;verticalAlign=top;spacingLeft=4;spacingRight=4;overflow=hidden;rotatable=0;points=[[0,0.5],[1,0.5]];portConstraint=eastwest;" vertex="1" parent="zOB5Pgy7R0kJXCwInkpY-32">
          <mxGeometry y="78" width="195" height="26" as="geometry" />
        </mxCell>
        <mxCell id="zOB5Pgy7R0kJXCwInkpY-36" value="" style="line;strokeWidth=1;fillColor=none;align=left;verticalAlign=middle;spacingTop=-1;spacingLeft=3;spacingRight=3;rotatable=0;labelPosition=right;points=[];portConstraint=eastwest;strokeColor=inherit;" vertex="1" parent="zOB5Pgy7R0kJXCwInkpY-32">
          <mxGeometry y="104" width="195" height="8" as="geometry" />
        </mxCell>
        <mxCell id="zOB5Pgy7R0kJXCwInkpY-37" value="+ register()" style="text;strokeColor=none;fillColor=none;align=left;verticalAlign=top;spacingLeft=4;spacingRight=4;overflow=hidden;rotatable=0;points=[[0,0.5],[1,0.5]];portConstraint=eastwest;" vertex="1" parent="zOB5Pgy7R0kJXCwInkpY-32">
          <mxGeometry y="112" width="195" height="26" as="geometry" />
        </mxCell>
        <mxCell id="zOB5Pgy7R0kJXCwInkpY-38" value="+ handleMessage(Message)" style="text;strokeColor=none;fillColor=none;align=left;verticalAlign=top;spacingLeft=4;spacingRight=4;overflow=hidden;rotatable=0;points=[[0,0.5],[1,0.5]];portConstraint=eastwest;" vertex="1" parent="zOB5Pgy7R0kJXCwInkpY-32">
          <mxGeometry y="138" width="195" height="26" as="geometry" />
        </mxCell>
        <mxCell id="zOB5Pgy7R0kJXCwInkpY-39" value="+ setSecoreFilter(int)" style="text;strokeColor=none;fillColor=none;align=left;verticalAlign=top;spacingLeft=4;spacingRight=4;overflow=hidden;rotatable=0;points=[[0,0.5],[1,0.5]];portConstraint=eastwest;" vertex="1" parent="zOB5Pgy7R0kJXCwInkpY-32">
          <mxGeometry y="164" width="195" height="26" as="geometry" />
        </mxCell>
        <mxCell id="zOB5Pgy7R0kJXCwInkpY-40" value="......" style="text;strokeColor=none;fillColor=none;align=left;verticalAlign=top;spacingLeft=4;spacingRight=4;overflow=hidden;rotatable=0;points=[[0,0.5],[1,0.5]];portConstraint=eastwest;" vertex="1" parent="zOB5Pgy7R0kJXCwInkpY-32">
          <mxGeometry y="190" width="195" height="26" as="geometry" />
        </mxCell>
      </root>
    </mxGraphModel>
  </diagram>
</mxfile>
